<mxfile host="app.diagrams.net" agent="Mozilla/5.0 (X11; Linux x86_64) AppleWebKit/537.36 (KHTML, like Gecko) Chrome/136.0.0.0 Safari/537.36" version="27.1.6">
  <diagram name="PÃ¡gina-1" id="LP-r-08Pe_Kqsaq53u61">
    <mxGraphModel dx="872" dy="486" grid="1" gridSize="10" guides="1" tooltips="1" connect="1" arrows="1" fold="1" page="1" pageScale="1" pageWidth="827" pageHeight="1169" math="0" shadow="0">
      <root>
        <mxCell id="0" />
        <mxCell id="1" parent="0" />
        <mxCell id="MK0yFYpV1A1FZNRc_ogx-9" style="edgeStyle=orthogonalEdgeStyle;rounded=0;orthogonalLoop=1;jettySize=auto;html=1;" edge="1" parent="1" source="MK0yFYpV1A1FZNRc_ogx-1" target="MK0yFYpV1A1FZNRc_ogx-2">
          <mxGeometry relative="1" as="geometry" />
        </mxCell>
        <mxCell id="MK0yFYpV1A1FZNRc_ogx-12" value="Pull request" style="edgeLabel;html=1;align=center;verticalAlign=middle;resizable=0;points=[];" vertex="1" connectable="0" parent="MK0yFYpV1A1FZNRc_ogx-9">
          <mxGeometry x="0.02" y="1" relative="1" as="geometry">
            <mxPoint x="-3" as="offset" />
          </mxGeometry>
        </mxCell>
        <mxCell id="MK0yFYpV1A1FZNRc_ogx-1" value="Main" style="rounded=1;whiteSpace=wrap;html=1;fillColor=#dae8fc;strokeColor=#6c8ebf;" vertex="1" parent="1">
          <mxGeometry x="350" y="220" width="120" height="60" as="geometry" />
        </mxCell>
        <mxCell id="MK0yFYpV1A1FZNRc_ogx-19" value="" style="edgeStyle=orthogonalEdgeStyle;rounded=0;orthogonalLoop=1;jettySize=auto;html=1;" edge="1" parent="1" source="MK0yFYpV1A1FZNRc_ogx-2" target="MK0yFYpV1A1FZNRc_ogx-18">
          <mxGeometry relative="1" as="geometry" />
        </mxCell>
        <mxCell id="MK0yFYpV1A1FZNRc_ogx-2" value="Release" style="rounded=1;whiteSpace=wrap;html=1;fillColor=#f8cecc;strokeColor=#b85450;" vertex="1" parent="1">
          <mxGeometry x="570" y="220" width="120" height="60" as="geometry" />
        </mxCell>
        <mxCell id="MK0yFYpV1A1FZNRc_ogx-6" style="edgeStyle=orthogonalEdgeStyle;rounded=0;orthogonalLoop=1;jettySize=auto;html=1;entryX=0;entryY=0.5;entryDx=0;entryDy=0;" edge="1" parent="1" source="MK0yFYpV1A1FZNRc_ogx-3" target="MK0yFYpV1A1FZNRc_ogx-1">
          <mxGeometry relative="1" as="geometry">
            <Array as="points">
              <mxPoint x="250" y="180" />
              <mxPoint x="250" y="250" />
            </Array>
          </mxGeometry>
        </mxCell>
        <mxCell id="MK0yFYpV1A1FZNRc_ogx-3" value="Feature" style="rounded=1;whiteSpace=wrap;html=1;fillColor=#d5e8d4;strokeColor=#82b366;" vertex="1" parent="1">
          <mxGeometry x="90" y="150" width="120" height="60" as="geometry" />
        </mxCell>
        <mxCell id="MK0yFYpV1A1FZNRc_ogx-7" style="edgeStyle=orthogonalEdgeStyle;rounded=0;orthogonalLoop=1;jettySize=auto;html=1;" edge="1" parent="1" source="MK0yFYpV1A1FZNRc_ogx-4" target="MK0yFYpV1A1FZNRc_ogx-1">
          <mxGeometry relative="1" as="geometry" />
        </mxCell>
        <mxCell id="MK0yFYpV1A1FZNRc_ogx-4" value="Bug fix" style="rounded=1;whiteSpace=wrap;html=1;fillColor=#d5e8d4;strokeColor=#82b366;" vertex="1" parent="1">
          <mxGeometry x="90" y="220" width="120" height="60" as="geometry" />
        </mxCell>
        <mxCell id="MK0yFYpV1A1FZNRc_ogx-8" style="edgeStyle=orthogonalEdgeStyle;rounded=0;orthogonalLoop=1;jettySize=auto;html=1;entryX=0;entryY=0.5;entryDx=0;entryDy=0;" edge="1" parent="1" source="MK0yFYpV1A1FZNRc_ogx-5" target="MK0yFYpV1A1FZNRc_ogx-1">
          <mxGeometry relative="1" as="geometry">
            <Array as="points">
              <mxPoint x="250" y="320" />
              <mxPoint x="250" y="250" />
            </Array>
          </mxGeometry>
        </mxCell>
        <mxCell id="MK0yFYpV1A1FZNRc_ogx-10" value="Text" style="edgeLabel;html=1;align=center;verticalAlign=middle;resizable=0;points=[];" vertex="1" connectable="0" parent="MK0yFYpV1A1FZNRc_ogx-8">
          <mxGeometry x="0.4286" y="-2" relative="1" as="geometry">
            <mxPoint as="offset" />
          </mxGeometry>
        </mxCell>
        <mxCell id="MK0yFYpV1A1FZNRc_ogx-11" value="Pull request" style="edgeLabel;html=1;align=center;verticalAlign=middle;resizable=0;points=[];" vertex="1" connectable="0" parent="MK0yFYpV1A1FZNRc_ogx-8">
          <mxGeometry x="0.4476" y="-4" relative="1" as="geometry">
            <mxPoint x="2" y="-5" as="offset" />
          </mxGeometry>
        </mxCell>
        <mxCell id="MK0yFYpV1A1FZNRc_ogx-5" value="..." style="rounded=1;whiteSpace=wrap;html=1;fillColor=#d5e8d4;strokeColor=#82b366;" vertex="1" parent="1">
          <mxGeometry x="90" y="290" width="120" height="60" as="geometry" />
        </mxCell>
        <mxCell id="MK0yFYpV1A1FZNRc_ogx-13" value="Changes are created and tested" style="text;html=1;align=center;verticalAlign=middle;whiteSpace=wrap;rounded=0;" vertex="1" parent="1">
          <mxGeometry x="90" y="90" width="120" height="50" as="geometry" />
        </mxCell>
        <mxCell id="MK0yFYpV1A1FZNRc_ogx-16" value="Production version" style="text;html=1;align=center;verticalAlign=middle;whiteSpace=wrap;rounded=0;" vertex="1" parent="1">
          <mxGeometry x="350" y="160" width="120" height="50" as="geometry" />
        </mxCell>
        <mxCell id="MK0yFYpV1A1FZNRc_ogx-17" value="Older release versions" style="text;html=1;align=center;verticalAlign=middle;whiteSpace=wrap;rounded=0;" vertex="1" parent="1">
          <mxGeometry x="570" y="160" width="120" height="50" as="geometry" />
        </mxCell>
        <mxCell id="MK0yFYpV1A1FZNRc_ogx-18" value="Tag&lt;div&gt;version&lt;/div&gt;" style="rhombus;whiteSpace=wrap;html=1;fillColor=#f8cecc;strokeColor=#b85450;rounded=1;" vertex="1" parent="1">
          <mxGeometry x="590" y="310" width="80" height="80" as="geometry" />
        </mxCell>
      </root>
    </mxGraphModel>
  </diagram>
</mxfile>
